<?xml version="1.0" standalone="no"?>
<!DOCTYPE svg PUBLIC "-//W3C//DTD SVG 20010904//EN"
 "http://www.w3.org/TR/2001/REC-SVG-20010904/DTD/svg10.dtd">
<svg version="1.0" xmlns="http://www.w3.org/2000/svg"
 width="500.000000pt" height="500.000000pt" viewBox="0 0 500.000000 500.000000"
 preserveAspectRatio="xMidYMid meet">

<g transform="translate(0.000000,500.000000) scale(0.100000,-0.100000)"
fill="#000000" stroke="none">
<path d="M0 2500 l0 -2500 2500 0 2500 0 0 2500 0 2500 -2500 0 -2500 0 0
-2500z m4500 1570 l0 -430 -50 0 -50 0 0 380 0 380 -370 0 -370 0 0 50 0 50
420 0 420 0 0 -430z m-2102 -1097 l2 -323 -155 0 -155 0 0 175 0 175 -70 0
c-93 0 -211 -25 -285 -60 -68 -32 -143 -101 -180 -165 -72 -123 -86 -358 -29
-504 35 -87 107 -173 182 -214 102 -55 179 -67 449 -67 l243 0 0 -150 0 -150
-207 0 c-115 0 -242 5 -283 10 -403 52 -644 248 -712 578 -27 131 -21 378 12
492 34 119 85 206 170 291 176 177 393 238 835 235 l180 -1 3 -322z m1017 303
c154 -43 271 -136 315 -253 93 -244 11 -502 -194 -609 -31 -16 -56 -32 -56
-36 0 -3 68 -153 150 -333 83 -179 150 -333 150 -341 0 -12 -24 -14 -162 -12
l-162 3 -146 320 -147 320 -87 3 -86 3 -2 -323 -3 -323 -150 0 -150 0 -3 467
-2 466 312 4 313 3 56 26 c46 22 60 35 78 71 45 93 13 194 -74 238 -49 25 -54
25 -365 30 l-315 5 -3 134 c-2 95 1 138 10 148 18 23 636 13 723 -11z m-2815
-2296 l0 -380 370 0 370 0 0 -50 0 -50 -420 0 -420 0 0 430 0 430 50 0 50 0 0
-380z"/>
</g>
</svg>
